<?xml version="1.0" encoding="UTF-8" standalone="no"?>
<svg
   width="869.7265"
   height="1067.9564"
   viewBox="0 0 67.058001 82.342003"
   version="1.1"
   id="svg8"
   sodipodi:docname="unisa.svg"
   inkscape:version="1.1.2 (b8e25be833, 2022-02-05)"
   xmlns:inkscape="http://www.inkscape.org/namespaces/inkscape"
   xmlns:sodipodi="http://sodipodi.sourceforge.net/DTD/sodipodi-0.dtd"
   xmlns="http://www.w3.org/2000/svg"
   xmlns:svg="http://www.w3.org/2000/svg">
  <defs
     id="defs12" />
  <sodipodi:namedview
     id="namedview10"
     pagecolor="#ffffff"
     bordercolor="#666666"
     borderopacity="1.0"
     inkscape:pageshadow="2"
     inkscape:pageopacity="0.0"
     inkscape:pagecheckerboard="0"
     showgrid="false"
     inkscape:zoom="0.11638978"
     inkscape:cx="1714.0681"
     inkscape:cy="1641.0376"
     inkscape:window-width="1920"
     inkscape:window-height="1009"
     inkscape:window-x="-8"
     inkscape:window-y="-8"
     inkscape:window-maximized="1"
     inkscape:current-layer="g6" />
  <g
     fill-rule="evenodd"
     clip-rule="evenodd"
     id="g6"
     transform="translate(-62.915,-21.086)">
    <path
       d="m 99.539,38.608 6.061,-3.425 6.061,3.425 -6.061,3.558 v 27.666 c 0,5.138 -4.084,9.222 -9.09,9.222 -5.106308,0.03186 -9.253858,-4.115692 -9.222,-9.222 V 45.59 l 6.06,-3.425 6.191,3.557 -6.06,3.425 v 20.684 c 0,1.713 1.318,3.03 3.03,3.03 1.58,0 3.029,-1.317 3.029,-3.03 V 38.608 Z M 81.228,56.13 v 13.701 c 0,8.432 6.851,15.282 15.282,15.282 8.301,0 15.15,-6.851 15.15,-15.282 V 31.625 l 6.061,-3.425 6.191,3.425 -6.191,3.557 v 34.649 c 0,11.857 -9.486,21.343 -21.211,21.343 C 84.702124,91.223549 75.117451,81.638876 75.167,69.831 V 52.705 l 6.061,-3.557 6.06,3.557 z m 48.745,13.702 c 0,18.576 -15.018,33.596 -33.463,33.596 -18.576,0 -33.595,-15.02 -33.595,-33.596 V 21.086 h 67.058 z"
       fill="#2d4f9e"
       id="path4"
       sodipodi:nodetypes="ccccsccccccssscccsssccccsccccccsssccs" />
  </g>
</svg>
